<svg width="600" height="600" viewBox="0 0 600 600" xmlns="http://www.w3.org/2000/svg">
  <!-- 凤凰主体 -->
  <g opacity="0.15">
    <!-- 身体 -->
    <ellipse cx="300" cy="280" rx="80" ry="120" fill="#e63946"/>
    
    <!-- 头部 -->
    <circle cx="300" cy="180" r="50" fill="#e63946"/>
    
    <!-- 凤凰冠 -->
    <path d="M280 140 Q285 100 300 80 Q315 100 320 140" 
          stroke="#f9ca24" stroke-width="6" fill="none" stroke-linecap="round"/>
    <path d="M270 150 Q275 115 290 100" 
          stroke="#f9ca24" stroke-width="5" fill="none" stroke-linecap="round"/>
    <path d="M330 150 Q325 115 310 100" 
          stroke="#f9ca24" stroke-width="5" fill="none" stroke-linecap="round"/>
    
    <!-- 眼睛 -->
    <circle cx="285" cy="175" r="8" fill="#2d3436"/>
    <circle cx="315" cy="175" r="8" fill="#2d3436"/>
    <circle cx="287" cy="173" r="3" fill="white"/>
    <circle cx="317" cy="173" r="3" fill="white"/>
    
    <!-- 喙 -->
    <path d="M300 190 Q310 200 300 205 Q290 200 300 190" fill="#f9ca24"/>
    
    <!-- 左翅膀 -->
    <path d="M220 280 Q160 240 120 260 Q80 280 90 320 Q100 360 130 340 Q160 320 180 310 Q200 300 220 300" 
          fill="#ff6b6b" opacity="0.8"/>
    <path d="M210 290 Q150 250 110 270 Q70 290 80 330" 
          stroke="#e63946" stroke-width="3" fill="none"/>
    
    <!-- 右翅膀 -->
    <path d="M380 280 Q440 240 480 260 Q520 280 510 320 Q500 360 470 340 Q440 320 420 310 Q400 300 380 300" 
          fill="#ff6b6b" opacity="0.8"/>
    <path d="M390 290 Q450 250 490 270 Q530 290 520 330" 
          stroke="#e63946" stroke-width="3" fill="none"/>
    
    <!-- 尾羽 - 长长的装饰性尾羽 -->
    <!-- 中间主尾羽 -->
    <path d="M300 400 Q300 470 310 540 Q315 580 300 600" 
          stroke="#f9ca24" stroke-width="8" fill="none" stroke-linecap="round"/>
    <path d="M300 400 Q295 470 290 540 Q285 580 300 600" 
          stroke="#f9ca24" stroke-width="8" fill="none" stroke-linecap="round"/>
    
    <!-- 左侧尾羽 -->
    <path d="M280 400 Q260 460 240 520 Q230 560 220 590" 
          stroke="#e63946" stroke-width="7" fill="none" stroke-linecap="round"/>
    <path d="M270 400 Q245 455 220 510 Q205 545 190 570" 
          stroke="#ff6b6b" stroke-width="6" fill="none" stroke-linecap="round"/>
    <path d="M260 400 Q230 450 200 500 Q180 530 160 550" 
          stroke="#e63946" stroke-width="5" fill="none" stroke-linecap="round" opacity="0.8"/>
    
    <!-- 右侧尾羽 -->
    <path d="M320 400 Q340 460 360 520 Q370 560 380 590" 
          stroke="#e63946" stroke-width="7" fill="none" stroke-linecap="round"/>
    <path d="M330 400 Q355 455 380 510 Q395 545 410 570" 
          stroke="#ff6b6b" stroke-width="6" fill="none" stroke-linecap="round"/>
    <path d="M340 400 Q370 450 400 500 Q420 530 440 550" 
          stroke="#e63946" stroke-width="5" fill="none" stroke-linecap="round" opacity="0.8"/>
    
    <!-- 尾羽上的装饰花纹 -->
    <circle cx="300" cy="480" r="8" fill="#f9ca24"/>
    <circle cx="290" cy="520" r="6" fill="#e63946"/>
    <circle cx="310" cy="520" r="6" fill="#e63946"/>
    <circle cx="240" cy="490" r="5" fill="#f9ca24"/>
    <circle cx="360" cy="490" r="5" fill="#f9ca24"/>
  </g>
</svg>

